<svg id="quotation-mark" data-name="Layer 1" xmlns="http://www.w3.org/2000/svg" viewBox="0 0 596.01 363.13"><defs><style>.cls-1{fill:beige;}</style></defs><path class="cls-1" d="M813.07,356.47c-4.29-33-17.7-61.71-41.23-85.4-57.32-57.69-143.35-55.94-199.53-4.65C536,299.54,521.63,341.9,527.5,390.76c7.33,60.95,53.59,110.65,114,121.73,14.8,2.72,30.06,2.91,46.77,4.42-1,6.75-1.45,14.58-3.37,22-3.55,13.83-12,25.09-20.94,35.91-3.89,4.68-4.12,8.69-1.21,12.51s7.64,4.77,12.88,2.14c35.33-17.7,67-40.31,91.59-71.55C804.56,470.52,820.93,416.87,813.07,356.47ZM762.72,492.73c-15.6,23.86-35.89,43.19-59.35,59.28-1,.67-2,1.26-3.46,2.18,1.87-7.49,4.59-14.3,5.07-21.27a159.71,159.71,0,0,0-.91-28.91c-.83-7.28-5.26-9.66-12.46-8.57-44,6.69-81.58-6.26-112.68-37.72A121.18,121.18,0,0,1,554.1,324.61c18.46-42.56,50.32-68.89,96.55-76.23,64.59-10.27,125.64,30.12,140.91,93.75C804.59,396.4,792.93,446.53,762.72,492.73Z" transform="translate(-218.99 -227.87)"/><path class="cls-1" d="M505.84,356.47c-4.3-33-17.7-61.71-41.23-85.4-57.33-57.69-143.36-55.94-199.53-4.65-36.28,33.12-50.69,75.48-44.81,124.34,7.32,60.95,53.59,110.65,114,121.73,14.79,2.72,30,2.91,46.76,4.42-1,6.75-1.45,14.58-3.36,22-3.55,13.83-11.95,25.09-20.94,35.91-3.9,4.68-4.13,8.69-1.21,12.51s7.64,4.77,12.88,2.14c35.33-17.7,67-40.31,91.58-71.55C497.32,470.52,513.7,416.87,505.84,356.47ZM455.49,492.73c-15.6,23.86-35.9,43.19-59.36,59.28-1,.67-2,1.26-3.45,2.18,1.87-7.49,4.59-14.3,5.06-21.27a160.61,160.61,0,0,0-.9-28.91c-.83-7.28-5.27-9.66-12.47-8.57-44,6.69-81.57-6.26-112.67-37.72a121.14,121.14,0,0,1-24.83-133.11c18.46-42.56,50.32-68.89,96.54-76.23,64.6-10.27,125.64,30.12,140.92,93.75C497.35,396.4,485.69,446.53,455.49,492.73Z" transform="translate(-218.99 -227.87)"/></svg>